# xmcd
#
# Track frame offsets: 
#        150
#        22690
#        35934
#        52567
#        68162
#        85322
#        97143
#        111349
#        133472
#        148338
#        162973
#        181746
#        199805
#
# Disc length: 2817 seconds
#
# Revision: 0
# Processed by: cddbd v1.5.2PL0 Copyright (c) Steve Scherf et al.
# Submitted via: ExactAudioCopy v1.0b3
#
DISCID=ba0aff0d
DTITLE=Keb Mo - Just Like You
DYEAR=1900
DGENRE=Pop
TTITLE0=Dangerous Mood
TTITLE1=Hand it Over
TTITLE2=I'm On Your Side
TTITLE3=Just Like You
TTITLE4=Last Fair Deal Gone Down
TTITLE5=Lullaby Baby Blues
TTITLE6=Momma, Where's My Daddy?
TTITLE7=More Than One Way Home
TTITLE8=Perpetual Blues Machine
TTITLE9=Standin @ The Station
TTITLE10=Thats Not Love
TTITLE11=the Action
TTITLE12=You Can Love Your Self
EXTD=
EXTT0=
EXTT1=
EXTT2=
EXTT3=
EXTT4=
EXTT5=
EXTT6=
EXTT7=
EXTT8=
EXTT9=
EXTT10=
EXTT11=
EXTT12=
PLAYORDER=
